<?xml version="1.0" encoding="UTF-8"?>
<svg xmlns="http://www.w3.org/2000/svg" version="1.1" viewBox="0 0 2160 2160">
  <defs>
    <style>
      .cls-1 {
        fill: #000;
      }

      .cls-1, .cls-2, .cls-3 {
        stroke-width: 0px;
      }

      .cls-2 {
        fill: #231f20;
      }

      .cls-3 {
        fill: none;
      }

      .cls-4 {
        display: none;
      }
    </style>
  </defs>
  <g id="Layer_1" data-name="Layer 1" class="cls-4">
    <path class="cls-2" d="M1165,814.5c-8.6,0-15.5,7-15.5,15.5,0,50.6-31.3,77.4-69.5,105.7-2.2,1.7-4.5,3.3-6.7,5-.8.6-1.6,1.2-2.4,1.8-3.4,2.5-6.8,5-10.1,7.5-2.2,1.6-4.4,3.3-6.6,5-16.3,12.4-32.1,25.7-45,41.5-19.9,24.6-29.6,51.9-29.6,83.5s9.7,58.9,29.6,83.5c12.8,15.9,28.7,29.1,45,41.5,2.2,1.7,4.4,3.3,6.6,5,2.2-1.7,4.5-3.3,6.7-5,2.7-2,5.5-4,8.2-6,1.5-1.1,3-2.2,4.4-3.3,2.3-1.7,4.5-3.3,6.7-5-2.3-1.7-4.5-3.3-6.7-5-38.2-28.3-69.5-55.1-69.5-105.7s31.3-77.4,69.5-105.7c2.2-1.7,4.5-3.3,6.7-5,.8-.6,1.6-1.2,2.4-1.8,3.4-2.5,6.8-5,10.1-7.5,2.2-1.7,4.4-3.3,6.6-5,16.3-12.4,32.1-25.7,45-41.5,19.9-24.6,29.6-51.9,29.6-83.5s-6.9-15.5-15.5-15.5ZM1099.3,950c-2.2,1.7-4.5,3.3-6.7,5-2.7,2-5.5,4-8.2,6-1.5,1.1-3,2.2-4.4,3.3-2.3,1.7-4.5,3.3-6.7,5-37.7,28.2-70.8,57.2-70.8,110.7s33,82.5,70.8,110.7c-.8.6-1.6,1.2-2.4,1.8-3.4,2.5-6.8,5-10.1,7.5-38.1-28.8-73.2-61.3-73.2-120s35.1-91.2,73.2-120c2.2-1.7,4.5-3.3,6.7-5,2.7-2,5.5-4,8.2-6,1.5-1.1,3-2.2,4.4-3.3,2.3-1.7,4.5-3.3,6.7-5,37.7-28.2,70.8-57.2,70.8-110.7s3.4-7.5,7.5-7.5,7.5,3.4,7.5,7.5c0,58.7-35.1,91.2-73.2,120ZM1150.9,1246.5c-12.8-15.9-28.7-29.1-45-41.5-2.2-1.7-4.4-3.4-6.6-5-2.2,1.7-4.5,3.3-6.7,5-2.7,2-5.5,4-8.2,6-1.5,1.1-3,2.2-4.4,3.3-2.3,1.7-4.5,3.3-6.7,5,2.3,1.7,4.5,3.3,6.7,5,38.2,28.3,69.5,55.1,69.5,105.7s6.9,15.5,15.5,15.5,15.5-6.9,15.5-15.5c0-31.6-9.7-58.9-29.6-83.5ZM1165,1337.5c-4.1,0-7.5-3.4-7.5-7.5,0-53.5-33-82.5-70.8-110.7.8-.6,1.6-1.2,2.5-1.8,3.4-2.5,6.8-5,10.1-7.5,38.1,28.8,73.2,61.3,73.2,120s-3.4,7.5-7.5,7.5Z"/>
    <path class="cls-2" d="M1080,1195.7c-1.5,1.1-3,2.2-4.4,3.3-2.7,2-5.5,4-8.2,6-2.2-1.7-4.5-3.3-6.7-5,3.4-2.5,6.8-5,10.1-7.5.8-.6,1.6-1.2,2.4-1.8,2.2,1.7,4.5,3.3,6.7,5Z"/>
    <path class="cls-2" d="M1099.3,1210c-3.4,2.5-6.8,5-10.1,7.5-.8.6-1.6,1.2-2.5,1.8-2.2-1.7-4.5-3.3-6.7-5,1.5-1.1,3-2.2,4.4-3.3,2.7-2,5.5-4,8.2-6,2.2,1.7,4.5,3.3,6.7,5Z"/>
    <path class="cls-2" d="M1080,935.7c-38.2-28.3-69.5-55.1-69.5-105.7s-7-15.5-15.5-15.5-15.5,7-15.5,15.5c0,31.6,9.7,58.9,29.6,83.5,12.8,15.9,28.7,29.1,45,41.5,2.2,1.7,4.4,3.3,6.6,5,2.2-1.7,4.5-3.3,6.7-5,2.7-2,5.5-4,8.2-6,1.5-1.1,3-2.2,4.4-3.3,2.3-1.7,4.5-3.3,6.7-5-2.3-1.7-4.5-3.3-6.7-5ZM1070.8,942.5c-3.4,2.5-6.8,5-10.1,7.5-38.1-28.8-73.2-61.3-73.2-120s3.4-7.5,7.5-7.5,7.5,3.4,7.5,7.5c0,53.5,33,82.5,70.8,110.7-.8.6-1.6,1.2-2.4,1.8Z"/>
    <path class="cls-2" d="M1150.9,996.5c-12.8-15.9-28.7-29.1-45-41.5-2.2-1.7-4.4-3.4-6.6-5-2.2,1.7-4.5,3.3-6.7,5-2.7,2-5.5,4-8.2,6-1.5,1.1-3,2.2-4.4,3.3-2.3,1.7-4.5,3.3-6.7,5,2.3,1.7,4.5,3.3,6.7,5,38.2,28.3,69.5,55.1,69.5,105.7s-31.3,77.4-69.5,105.7c-2.2,1.7-4.5,3.3-6.7,5-.8.6-1.6,1.2-2.4,1.8-3.4,2.5-6.8,5-10.1,7.5-2.2,1.6-4.4,3.3-6.6,5-16.3,12.4-32.1,25.7-45,41.5-19.9,24.6-29.6,51.9-29.6,83.5s7,15.5,15.5,15.5,15.5-6.9,15.5-15.5c0-50.7,31.3-77.4,69.5-105.7,2.2-1.7,4.5-3.3,6.7-5,.8-.6,1.6-1.2,2.5-1.8,3.4-2.5,6.8-5,10.1-7.5,2.2-1.7,4.4-3.3,6.6-5,16.3-12.4,32.1-25.7,45-41.5,19.9-24.6,29.6-51.9,29.6-83.5s-9.7-58.9-29.6-83.5ZM1099.3,1200c-2.2,1.7-4.5,3.3-6.7,5-2.7,2-5.5,4-8.2,6-1.5,1.1-3,2.2-4.4,3.3-2.3,1.7-4.5,3.3-6.7,5-37.7,28.2-70.8,57.2-70.8,110.7s-3.4,7.5-7.5,7.5-7.5-3.4-7.5-7.5c0-58.7,35.1-91.2,73.2-120,2.2-1.7,4.5-3.3,6.7-5,2.7-2,5.5-4,8.2-6,1.5-1.1,3-2.2,4.4-3.3,2.3-1.7,4.5-3.3,6.7-5,37.7-28.2,70.8-57.2,70.8-110.7s-33-82.5-70.8-110.7c.8-.6,1.6-1.2,2.4-1.8,3.4-2.5,6.8-5,10.1-7.5,38.1,28.8,73.2,61.3,73.2,120s-35.1,91.2-73.2,120Z"/>
    <path class="cls-2" d="M1080,945.7c-1.5,1.1-3,2.2-4.4,3.3-2.7,2-5.5,4-8.2,6-2.2-1.7-4.5-3.3-6.7-5,3.4-2.5,6.8-5,10.1-7.5.8-.6,1.6-1.2,2.4-1.8,2.2,1.7,4.5,3.3,6.7,5Z"/>
    <path class="cls-2" d="M1099.3,960c-3.4,2.5-6.8,5-10.1,7.5-.8.6-1.6,1.2-2.4,1.8-2.2-1.7-4.5-3.3-6.7-5,1.5-1.1,3-2.2,4.4-3.3,2.7-2,5.5-4,8.2-6,2.2,1.7,4.5,3.3,6.7,5Z"/>
  </g>
  <g id="Layer_3" data-name="Layer 3">
    <path class="cls-2" d="M1447,461.5l357.1,618.5-357.1,618.5h-714.2s-357.1-618.5-357.1-618.5l357.1-618.5h714.2M1447,411.5h-714.2c-17.9,0-34.4,9.5-43.3,25l-357.1,618.5c-8.9,15.5-8.9,34.5,0,50l357.1,618.5c8.9,15.5,25.4,25,43.3,25h714.2c17.9,0,34.4-9.5,43.3-25l357.1-618.5c8.9-15.5,8.9-34.5,0-50l-357.1-618.5c-8.9-15.5-25.4-25-43.3-25h0Z"/>
  </g>
  <g id="Layer_2" data-name="Layer 2">
    <g>
      <path class="cls-3" d="M910.9,1160.6h357.9c6.7-21.6,10.7-45,11.5-70.8h-380.9c.8,25.8,4.8,49.3,11.5,70.8Z"/>
      <path class="cls-3" d="M899.4,1070.2h380.9c-.8-25.8-4.8-49.3-11.5-70.8h-357.9c-6.7,21.6-10.7,45-11.5,70.8Z"/>
      <path class="cls-3" d="M917.9,979.7h343.9c-10.6-26.1-25.2-49.4-42.7-70.8h-258.6c-17.5,21.4-32.1,44.7-42.7,70.8Z"/>
      <path class="cls-3" d="M960.6,1251.1h258.6c17.5-21.4,32.1-44.7,42.7-70.8h-343.9c10.6,26.1,25.2,49.4,42.7,70.8Z"/>
      <path class="cls-3" d="M953.8,627.6h272.2c16.3-21.4,29.7-44.7,39.1-70.8h-350.5c9.4,26.1,22.9,49.4,39.1,70.8Z"/>
      <path class="cls-3" d="M1227.8,1534.9h-275.9c-16,21.4-29,44.7-38.2,70.8h352.3c-9.1-26.1-22.2-49.4-38.2-70.8Z"/>
      <path class="cls-1" d="M1265.1,556.8c2.3-6.4,4.4-12.9,6.2-19.7h-362.8c1.8,6.7,3.9,13.3,6.2,19.7h350.5Z"/>
      <path class="cls-1" d="M953.8,627.6c5.1,6.7,10.5,13.3,16.2,19.7h239.8c5.7-6.4,11.1-12.9,16.2-19.7h-272.2Z"/>
      <path class="cls-1" d="M1219.1,908.9c-5.5-6.7-11.2-13.3-17.3-19.7h-224c-6,6.4-11.8,12.9-17.3,19.7h258.6Z"/>
      <path class="cls-1" d="M910.9,999.4h357.9c-2.1-6.7-4.4-13.3-7-19.7h-343.9c-2.6,6.4-4.9,12.9-7,19.7Z"/>
      <path class="cls-1" d="M899.2,1080c0,3.3,0,6.6.2,9.8h380.9c.1-3.3.2-6.5.2-9.8s0-6.6-.2-9.8h-380.9c-.1,3.3-.2,6.5-.2,9.8Z"/>
      <path class="cls-1" d="M917.9,1180.3h343.9c2.6-6.4,4.9-12.9,7-19.7h-357.9c2.1,6.7,4.4,13.3,7,19.7Z"/>
      <path class="cls-1" d="M960.6,1251.1c5.5,6.7,11.2,13.3,17.3,19.7h224c6-6.4,11.8-12.9,17.3-19.7h-258.6Z"/>
      <path class="cls-1" d="M1227.8,1534.9c-5-6.7-10.4-13.3-15.9-19.7h-244c-5.6,6.4-10.9,12.9-15.9,19.7h275.9Z"/>
      <path class="cls-1" d="M913.7,1605.7c-2.2,6.4-4.2,12.9-6,19.7h364.2c-1.7-6.7-3.7-13.3-6-19.7h-352.3Z"/>
      <path class="cls-1" d="M862.3,1694.9c0-25,2.7-48.1,7.4-69.6,1.5-6.7,3.2-13.3,5.1-19.7,7.7-25.9,18.8-49.3,32.3-70.8,4.2-6.7,8.7-13.3,13.4-19.7,32.9-44.8,76.5-81.2,121.8-115.4,5.5-4.1,10.9-8.2,16.4-12.3,6.7-5,13.4-9.9,20.1-14.9,3.6-2.7,7.3-5.4,10.9-8,5.6-4.1,11.1-8.2,16.6-12.3,34.6-25.9,67.7-52,95.5-81.5,6-6.4,11.8-12.9,17.3-19.7,17.5-21.4,32.1-44.7,42.7-70.8,2.6-6.4,4.9-12.9,7-19.7,6.7-21.6,10.7-45,11.5-70.8,0-3.2.2-6.5.2-9.8s0-6.6-.2-9.8c-.8-25.8-4.8-49.2-11.5-70.8-2.1-6.7-4.4-13.3-7-19.7-10.6-26.1-25.2-49.4-42.7-70.8-5.5-6.7-11.2-13.3-17.3-19.7-27.8-29.5-60.8-55.6-95.5-81.5,2-1.5,4-3,6-4.5,8.3-6.1,16.6-12.2,24.9-18.4,41.5,31.4,81.6,64.6,113.3,104.4,5.1,6.4,9.9,12.9,14.6,19.7,14.8,21.4,27.1,44.8,36,70.8,2.2,6.4,4.2,13,6,19.7,5.8,21.8,9.2,45.3,9.9,70.8,0,3.2.2,6.5.2,9.8s0,6.6-.2,9.8c-.7,25.6-4.2,49-9.9,70.8-1.8,6.7-3.8,13.3-6,19.7-8.9,26-21.2,49.3-36,70.8-4.6,6.7-9.5,13.3-14.6,19.7-31.8,39.8-71.8,73-113.3,104.4-5.5,4.1-10.9,8.2-16.5,12.3-6.7,5-13.4,9.9-20.1,14.9-3.6,2.7-7.3,5.4-10.9,8-5.6,4.1-11.1,8.2-16.6,12.3-38.9,29-75.8,58.5-105.5,92.6-5.6,6.4-10.9,12.9-15.9,19.7-16,21.4-29,44.7-38.2,70.8-2.2,6.4-4.2,13-6,19.7-5.5,21.3-8.5,44.3-8.5,69.6s-8.3,18.4-18.4,18.4c-10.2,0-18.4-8.3-18.4-18.4Z"/>
      <path class="cls-1" d="M862.3,465.1c0-10.2,8.3-18.4,18.4-18.4s18.4,8.3,18.4,18.4c0,26.3,3.3,50.1,9.2,72,1.8,6.7,3.9,13.3,6.2,19.7,9.4,26.1,22.9,49.4,39.2,70.8,5.1,6.7,10.5,13.3,16.2,19.7,29.3,33,65.4,61.8,103.3,90.1-2,1.5-4,3-6.1,4.5-8.3,6.1-16.6,12.2-24.9,18.4-44.5-33.6-87.3-69.3-120-113-4.8-6.4-9.3-12.9-13.7-19.7-13.8-21.5-25.1-44.9-33.1-70.8-2-6.4-3.8-13-5.3-19.7-5.1-22.2-8-46-8-72Z"/>
      <path class="cls-1" d="M1106.4,1422.6c2-1.5,4-3,6-4.5,8.3-6.1,16.6-12.2,24.9-18.4,45.3,34.2,88.8,70.6,121.8,115.4,4.7,6.4,9.2,12.9,13.4,19.7,13.5,21.5,24.5,44.9,32.3,70.8,1.9,6.4,3.6,13,5.1,19.7,4.8,21.5,7.4,44.5,7.4,69.6,0,10.2-8.3,18.4-18.4,18.4-10.2,0-18.4-8.3-18.4-18.4,0-25.3-3-48.3-8.5-69.6-1.7-6.7-3.7-13.3-6-19.7-9.2-26.1-22.2-49.4-38.2-70.8-5-6.7-10.4-13.3-15.9-19.7-29.7-34.1-66.6-63.5-105.5-92.6Z"/>
      <path class="cls-1" d="M862.3,1080c0-3.3,0-6.6.2-9.8.7-25.6,4.2-49,9.9-70.8,1.8-6.7,3.8-13.3,6-19.7,8.9-26,21.2-49.3,36-70.8,4.6-6.7,9.5-13.3,14.6-19.7,31.8-39.8,71.8-73,113.3-104.4,5.5-4.1,10.9-8.2,16.4-12.3,6.7-5,13.4-9.9,20.1-14.9,3.6-2.7,7.3-5.4,10.9-8,5.6-4.1,11.1-8.2,16.6-12.3,38-28.3,74-57.1,103.3-90.1,5.7-6.4,11.1-12.9,16.2-19.7,16.3-21.4,29.7-44.7,39.2-70.8,2.3-6.4,4.4-13,6.2-19.7,5.9-21.9,9.2-45.8,9.2-72,0-10.2,8.3-18.4,18.4-18.4s18.4,8.3,18.4,18.4c0,26-2.8,49.9-8,72-1.6,6.7-3.3,13.3-5.3,19.7-8,25.9-19.3,49.3-33.1,70.8-4.3,6.7-8.9,13.3-13.6,19.7-32.7,43.7-75.5,79.4-120,113-5.5,4.1-10.9,8.2-16.4,12.3-6.7,5-13.4,9.9-20.1,14.9-3.6,2.7-7.3,5.4-10.9,8-5.6,4.1-11.1,8.2-16.6,12.3-34.6,25.9-67.7,52-95.5,81.5-6,6.4-11.8,12.9-17.3,19.7-17.5,21.4-32.1,44.7-42.7,70.8-2.6,6.4-4.9,12.9-7,19.7-6.7,21.6-10.7,45-11.5,70.8,0,3.2-.2,6.5-.2,9.8s0,6.6.2,9.8c.8,25.8,4.8,49.2,11.5,70.8,2.1,6.7,4.4,13.3,7,19.7,10.6,26.1,25.2,49.4,42.7,70.8,5.5,6.7,11.2,13.3,17.3,19.7,27.8,29.5,60.8,55.6,95.5,81.5-2,1.5-4,3-6,4.5-8.3,6.1-16.6,12.2-24.9,18.4-41.5-31.4-81.6-64.6-113.3-104.4-5.1-6.4-9.9-12.9-14.6-19.7-14.8-21.4-27.1-44.8-36-70.8-2.2-6.4-4.2-13-6-19.7-5.8-21.8-9.2-45.3-9.9-70.8,0-3.2-.2-6.5-.2-9.8Z"/>
    </g>
  </g>
</svg>